Coordinates
version=1
nRows=32
nColumns=12
inDegrees=yes

Units are S.I. units (second, meters, Newtons, ...)
Angles are in degrees

endheader
time	SC_y	SC_z	SC_x	AC_y	AC_z	AC_x	GH_y	GH_z	GH_yy	EL_x	PS_y
       0.0              -37.47          3.869          47.07          52.41         -8.261         -6.793          146.4          77.04          74.12          115.8          22.69
    0.0318              -37.47          3.872          47.07          52.41         -8.258          -6.79          146.4          77.03          74.12          115.8           22.7
   0.06361              -37.47          3.874          47.07          52.41         -8.255         -6.786          146.4          77.03          74.13          115.8          22.72
   0.09541              -37.47          3.878          47.08          52.41         -8.252         -6.782          146.3          77.03          74.14          115.8          22.73
    0.1272              -37.47          3.881          47.08           52.4         -8.249         -6.778          146.3          77.03          74.14          115.8          22.75
     0.159              -37.47          3.884          47.09           52.4         -8.246         -6.774          146.2          77.02          74.15          115.7          22.77
    0.1908              -37.47          3.888          47.09           52.4         -8.242          -6.77          146.1          77.02          74.16          115.7          22.79
    0.2226              -37.48          3.892           47.1           52.4         -8.238         -6.765          146.1          77.02          74.17          115.7          22.81
    0.2544              -37.48          3.896           47.1           52.4         -8.234          -6.76          146.0          77.02          74.18          115.7          22.84
    0.2862              -37.48          3.901          47.11           52.4          -8.23         -6.754          145.9          77.01          74.19          115.7          22.86
     0.318              -37.48          3.906          47.11          52.39         -8.225         -6.748          145.8          77.01           74.2          115.6          22.89
    0.3498              -37.48          3.911          47.12          52.39          -8.22         -6.742          145.8          77.01          74.22          115.6          22.92
    0.3816              -37.48          3.917          47.13          52.39         -8.215         -6.735          145.7           77.0          74.23          115.6          22.95
    0.4134              -37.49          3.923          47.14          52.39         -8.209         -6.727          145.6           77.0          74.25          115.5          22.99
    0.4452              -37.49           3.93          47.14          52.38         -8.202         -6.719          145.5          76.99          74.26          115.5          23.02
     0.477              -37.49          3.937          47.15          52.38         -8.196         -6.711          145.3          76.99          74.28          115.5          23.06
    0.5088               -37.5          3.945          47.16          52.38         -8.188         -6.701          145.2          76.98           74.3          115.4          23.11
    0.5406               -37.5          3.954          47.17          52.37          -8.18         -6.691          145.1          76.98          74.32          115.4          23.15
    0.5724               -37.5          3.963          47.19          52.37         -8.171         -6.679          144.9          76.97          74.34          115.3          23.21
    0.6042              -37.51          3.974           47.2          52.36         -8.161         -6.667          144.8          76.96          74.36          115.3          23.26
    0.6361              -37.51          3.985          47.21          52.36          -8.15         -6.653          144.6          76.96          74.39          115.2          23.32
    0.6679              -37.51          3.998          47.23          52.35         -8.138         -6.638          144.4          76.95          74.42          115.1          23.39
    0.6997              -37.52          4.011          47.25          52.35         -8.125         -6.622          144.2          76.94          74.45          115.0          23.47
    0.7315              -37.53          4.027          47.27          52.34         -8.111         -6.604          143.9          76.93          74.49          115.0          23.55
    0.7633              -37.53          4.044          47.29          52.33         -8.095         -6.583          143.6          76.92          74.53          114.9          23.65
    0.7951              -37.54          4.063          47.31          52.33         -8.077          -6.56          143.3           76.9          74.57          114.8          23.75
    0.8269              -37.55          4.084          47.34          52.32         -8.057         -6.535          143.0          76.89          74.63          114.7          23.87
    0.8587              -37.56          4.108          47.37          52.31         -8.034         -6.506          142.6          76.87          74.68          114.5           24.0
    0.8905              -37.57          4.135           47.4           52.3         -8.008         -6.474          142.2          76.86          74.75          114.4          24.15
    0.9223              -37.58          4.166          47.44          52.28         -7.979         -6.437          141.7          76.83          74.82          114.2          24.32
    0.9541              -37.59          4.201          47.49          52.27         -7.946         -6.395          141.1          76.81           74.9          114.0          24.51
    0.9859              -37.61          4.241          47.54          52.25         -7.908         -6.347          140.5          76.78           75.0          113.8          24.73
